<?xml version="1.0" standalone="no"?>
<!DOCTYPE svg PUBLIC "-//W3C//DTD SVG 20010904//EN"
 "http://www.w3.org/TR/2001/REC-SVG-20010904/DTD/svg10.dtd">
<svg version="1.0" xmlns="http://www.w3.org/2000/svg"
 width="700.000000pt" height="700.000000pt" viewBox="0 0 700.000000 700.000000"
 preserveAspectRatio="xMidYMid meet">
<metadata>
Created by potrace 1.11, written by Peter Selinger 2001-2013
</metadata>
<g transform="translate(0.000000,700.000000) scale(0.100000,-0.100000)"
fill="#000000" stroke="none">
<path d="M0 3500 l0 -3500 3500 0 3500 0 0 3500 0 3500 -3500 0 -3500 0 0
-3500z m2498 203 l-3 -958 -107 -3 -108 -3 0 961 0 960 110 0 110 0 -2 -957z
m1216 442 c120 -25 211 -98 270 -216 l33 -65 37 57 c51 79 134 155 208 189
124 58 290 60 405 4 99 -48 184 -167 220 -311 16 -60 18 -126 18 -563 l0 -495
-105 0 -105 0 -5 490 c-5 471 -6 492 -27 547 -48 127 -115 173 -253 173 -76 0
-93 -4 -152 -33 -36 -18 -81 -49 -99 -69 -44 -51 -86 -145 -98 -223 -6 -37
-11 -242 -11 -478 l0 -413 -107 3 -108 3 -5 495 c-5 441 -7 500 -23 540 -28
72 -63 117 -114 147 -43 25 -57 28 -138 28 -76 0 -99 -4 -145 -26 -95 -45
-164 -130 -196 -244 -15 -51 -18 -123 -22 -502 l-4 -443 -104 0 -104 0 0 690
0 690 105 0 105 0 0 -102 1 -103 27 35 c127 168 301 236 496 195z"/>
</g>
</svg>
